<mxfile host="app.diagrams.net" agent="Mozilla/5.0 (Windows NT 10.0; Win64; x64) AppleWebKit/537.36 (KHTML, like Gecko) Chrome/134.0.0.0 Safari/537.36" version="26.1.0">
  <diagram name="Página-1" id="3uFsgLwjVot0MqLnrCKp">
    <mxGraphModel dx="794" dy="420" grid="1" gridSize="10" guides="1" tooltips="1" connect="1" arrows="1" fold="1" page="1" pageScale="1" pageWidth="827" pageHeight="1169" math="0" shadow="0">
      <root>
        <mxCell id="0" />
        <mxCell id="1" parent="0" />
        <mxCell id="pRFkm0w1bdQuSUCoafua-3" value="" style="edgeStyle=orthogonalEdgeStyle;rounded=0;orthogonalLoop=1;jettySize=auto;html=1;" edge="1" parent="1" source="pRFkm0w1bdQuSUCoafua-1" target="pRFkm0w1bdQuSUCoafua-2">
          <mxGeometry relative="1" as="geometry" />
        </mxCell>
        <mxCell id="pRFkm0w1bdQuSUCoafua-1" value="Inicio" style="ellipse;whiteSpace=wrap;html=1;aspect=fixed;" vertex="1" parent="1">
          <mxGeometry x="374" y="50" width="70" height="70" as="geometry" />
        </mxCell>
        <mxCell id="pRFkm0w1bdQuSUCoafua-5" value="" style="edgeStyle=orthogonalEdgeStyle;rounded=0;orthogonalLoop=1;jettySize=auto;html=1;" edge="1" parent="1" source="pRFkm0w1bdQuSUCoafua-2" target="pRFkm0w1bdQuSUCoafua-4">
          <mxGeometry relative="1" as="geometry" />
        </mxCell>
        <mxCell id="pRFkm0w1bdQuSUCoafua-2" value="&lt;span style=&quot;color: rgb(26, 26, 26); background-color: transparent;&quot;&gt;Mostrar mensaje: &quot;Por favor, ingrese el radio del círculo: &quot;&lt;/span&gt;" style="shape=parallelogram;perimeter=parallelogramPerimeter;whiteSpace=wrap;html=1;fixedSize=1;fillColor=#ffff88;strokeColor=#36393d;" vertex="1" parent="1">
          <mxGeometry x="319" y="170" width="180" height="80" as="geometry" />
        </mxCell>
        <mxCell id="pRFkm0w1bdQuSUCoafua-12" style="edgeStyle=orthogonalEdgeStyle;rounded=0;orthogonalLoop=1;jettySize=auto;html=1;" edge="1" parent="1" source="pRFkm0w1bdQuSUCoafua-4" target="pRFkm0w1bdQuSUCoafua-10">
          <mxGeometry relative="1" as="geometry" />
        </mxCell>
        <mxCell id="pRFkm0w1bdQuSUCoafua-4" value="&lt;span style=&quot;color: rgb(26, 26, 26); background-color: transparent;&quot;&gt;Definir y asignar a la variable area el resultado de π*radio^2&lt;/span&gt;" style="rounded=1;whiteSpace=wrap;html=1;fillColor=#b1ddf0;strokeColor=#10739e;" vertex="1" parent="1">
          <mxGeometry x="314" y="320" width="190" height="110" as="geometry" />
        </mxCell>
        <mxCell id="pRFkm0w1bdQuSUCoafua-14" value="" style="edgeStyle=orthogonalEdgeStyle;rounded=0;orthogonalLoop=1;jettySize=auto;html=1;" edge="1" parent="1" source="pRFkm0w1bdQuSUCoafua-10" target="pRFkm0w1bdQuSUCoafua-13">
          <mxGeometry relative="1" as="geometry" />
        </mxCell>
        <mxCell id="pRFkm0w1bdQuSUCoafua-10" value="&lt;span style=&quot;background-color: transparent; color: rgb(26, 26, 26);&quot;&gt;Mostrar el mensaje: &quot;El área del&lt;/span&gt;&lt;div&gt;&lt;span style=&quot;background-color: transparent; color: rgb(26, 26, 26);&quot;&gt;&amp;nbsp; círculo de radio &quot;, radio, &quot;es: &quot;, area&lt;/span&gt;&lt;/div&gt;" style="shape=parallelogram;perimeter=parallelogramPerimeter;whiteSpace=wrap;html=1;fixedSize=1;fillColor=#ffff88;strokeColor=#36393d;" vertex="1" parent="1">
          <mxGeometry x="288.75" y="490" width="240.5" height="120" as="geometry" />
        </mxCell>
        <mxCell id="pRFkm0w1bdQuSUCoafua-13" value="Fin" style="ellipse;whiteSpace=wrap;html=1;" vertex="1" parent="1">
          <mxGeometry x="369" y="690" width="80" height="80" as="geometry" />
        </mxCell>
      </root>
    </mxGraphModel>
  </diagram>
</mxfile>
